<svg width="27" height="24" viewBox="0 0 27 24" fill="none" xmlns="http://www.w3.org/2000/svg">
<path d="M13.1947 0.00970861C13.874 0.0400813 14.7133 -0.0545414 15.5451 0.0529314C16.4224 0.166245 17.0877 0.63235 17.524 1.394C20.1693 6.00949 22.8071 10.6291 25.4478 15.2469C25.7614 15.7959 26.0704 16.3473 26.3905 16.8923C26.9465 17.8391 26.9092 18.7841 26.3776 19.7187C25.6948 20.919 24.9974 22.1111 24.3059 23.3062C24.1633 23.5527 24.0218 23.5536 23.8812 23.3091C20.9497 18.2077 18.0181 13.1062 15.086 8.00533C13.6176 5.45052 12.148 2.89629 10.679 0.342056C10.4921 0.0167177 10.4956 0.00970861 10.8794 0.00970861C11.599 0.00970861 12.3186 0.00970861 13.1941 0.00970861H13.1947Z" fill="#4D70C1"/>
<path d="M8.30119 18.2766C10.9465 18.2766 13.5913 18.2801 16.2367 18.2713C16.4913 18.2707 16.6368 18.3431 16.7664 18.5715C17.6794 20.1778 18.6086 21.7747 19.5315 23.3751C19.7108 23.6858 19.7003 23.7045 19.3423 23.7045C14.4704 23.7045 9.59846 23.7086 4.72655 23.7016C3.61386 23.6998 2.77569 23.2051 2.22022 22.2268C1.5234 21.0008 0.809639 19.7853 0.105225 18.5639C-0.057736 18.2812 -0.0542314 18.2771 0.279285 18.2771C2.95325 18.2766 5.62781 18.2771 8.30178 18.2771L8.30119 18.2766Z" fill="#4D70C1"/>
<path d="M8.26846 3.87341C8.46179 4.20576 8.6376 4.50482 8.81108 4.80504C10.6001 7.90364 12.3892 11.0022 14.1783 14.1008C14.364 14.4227 14.364 14.4244 14.0019 14.4244C10.1708 14.4244 6.33979 14.4244 2.50873 14.4244C2.15653 14.4244 2.15536 14.4221 2.3265 14.1254C4.25108 10.7908 6.17566 7.45623 8.10141 4.12165C8.14405 4.04806 8.19603 3.9803 8.26846 3.87341Z" fill="#4D70C1"/>
</svg>
