<svg width="40" height="24" viewBox="0 0 40 24" fill="none" xmlns="http://www.w3.org/2000/svg">
<path d="M36.6663 3.11111H24.9997V0H36.6663V3.11111ZM39.5429 18.6667C38.8062 20.6842 36.1613 23.3333 31.0413 23.3333C25.9181 23.3333 21.7681 20.6438 21.7681 14.5056C21.7681 8.42333 25.6431 5.29667 30.878 5.29667C36.0146 5.29667 39.1512 8.06867 39.8362 12.1816C39.9662 12.9687 40.0179 14.0296 39.9946 15.5104H26.6164C26.833 20.5053 32.4213 20.6624 34.263 18.6667H39.5429ZM26.733 12.4444H35.008C34.833 10.038 33.1146 8.99267 30.8797 8.99267C28.4364 8.99267 27.0847 10.1873 26.733 12.4444ZM10.7766 23.3147H0V0.0326665H11.5882C20.7148 0.158667 20.8881 8.50111 16.1215 10.7753C21.8898 12.7353 22.0831 23.3147 10.7766 23.3147ZM4.99995 9.33333H10.9732C15.1532 9.33333 15.8165 4.66667 10.4532 4.66667H4.99995V9.33333ZM10.6516 14H4.99995V18.6916H10.5682C15.6598 18.6916 15.3482 14 10.6516 14Z" fill="#4D70C1"/>
</svg>
