<svg width="24" height="25" viewBox="0 0 24 25" fill="none" xmlns="http://www.w3.org/2000/svg">
<g clip-path="url(#clip0_71504_2)">
<path d="M12 2.25313C15.204 2.25313 15.584 2.26562 16.85 2.32604C20.102 2.48021 21.621 4.0875 21.769 7.45C21.827 8.76771 21.838 9.16354 21.838 12.501C21.838 15.8396 21.826 16.2344 21.769 17.5521C21.62 20.9115 20.105 22.5219 16.85 22.676C15.584 22.7365 15.206 22.749 12 22.749C8.796 22.749 8.416 22.7365 7.151 22.676C3.891 22.5208 2.38 20.9063 2.232 17.551C2.174 16.2333 2.162 15.8385 2.162 12.5C2.162 9.1625 2.175 8.76771 2.232 7.44896C2.381 4.0875 3.896 2.47917 7.151 2.325C8.417 2.26563 8.796 2.25313 12 2.25313ZM12 0C8.741 0 8.333 0.0145833 7.053 0.075C2.695 0.283333 0.273 2.80208 0.073 7.34583C0.014 8.68021 0 9.10521 0 12.5C0 15.8948 0.014 16.3208 0.072 17.6542C0.272 22.1937 2.69 24.7167 7.052 24.925C8.333 24.9854 8.741 25 12 25C15.259 25 15.668 24.9854 16.948 24.925C21.302 24.7167 23.73 22.1979 23.927 17.6542C23.986 16.3208 24 15.8948 24 12.5C24 9.10521 23.986 8.68021 23.928 7.34688C23.732 2.81146 21.311 0.284375 16.949 0.0760417C15.668 0.0145833 15.259 0 12 0ZM12 6.08125C8.597 6.08125 5.838 8.95521 5.838 12.5C5.838 16.0448 8.597 18.9198 12 18.9198C15.403 18.9198 18.162 16.0458 18.162 12.5C18.162 8.95521 15.403 6.08125 12 6.08125ZM12 16.6667C9.791 16.6667 8 14.8021 8 12.5C8 10.199 9.791 8.33333 12 8.33333C14.209 8.33333 16 10.199 16 12.5C16 14.8021 14.209 16.6667 12 16.6667ZM18.406 4.32813C17.61 4.32813 16.965 5 16.965 5.82812C16.965 6.65625 17.61 7.32812 18.406 7.32812C19.201 7.32812 19.845 6.65625 19.845 5.82812C19.845 5 19.201 4.32813 18.406 4.32813Z" fill="#4D70C1"/>
</g>
<defs>
<clipPath id="clip0_71504_2">
<rect width="24" height="25" fill="white"/>
</clipPath>
</defs>
</svg>
